<?xml version="1.0" standalone="no"?>
<?xml-stylesheet href="https://basespace.illumina.com/Content/css/bssdk/basespace.charts.css" type="text/css"?>
<!DOCTYPE svg PUBLIC "-//W3C//DTD SVG 1.1//EN"                    "http://www.w3.org/Graphics/SVG/1.1/DTD/svg11.dtd">
<svg width="520" height="1750" version="1.1" xmlns="http://www.w3.org/2000/svg"><g transform="translate(100,100)"><g class="yaxis" transform="translate(-10,0)"><g class="tick major" transform="translate(0,7.570093457943925)" style="opacity: 1;"><line x2="-6" y2="0"/><text x="-9" y="0" dy=".32em" style="text-anchor: end;"/></g><g class="tick major" transform="translate(0,37.850467289719624)" style="opacity: 1;"><line x2="-6" y2="0"/><text x="-9" y="0" dy=".32em" style="text-anchor: end;"/></g><g class="tick major" transform="translate(0,68.13084112149532)" style="opacity: 1;"><line x2="-6" y2="0"/><text x="-9" y="0" dy=".32em" style="text-anchor: end;"/></g><g class="tick major" transform="translate(0,98.41121495327103)" style="opacity: 1;"><line x2="-6" y2="0"/><text x="-9" y="0" dy=".32em" style="text-anchor: end;"/></g><g class="tick major" transform="translate(0,128.69158878504672)" style="opacity: 1;"><line x2="-6" y2="0"/><text x="-9" y="0" dy=".32em" style="text-anchor: end;"/></g><g class="tick major" transform="translate(0,158.97196261682242)" style="opacity: 1;"><line x2="-6" y2="0"/><text x="-9" y="0" dy=".32em" style="text-anchor: end;"/></g><g class="tick major" transform="translate(0,189.25233644859813)" style="opacity: 1;"><line x2="-6" y2="0"/><text x="-9" y="0" dy=".32em" style="text-anchor: end;"/></g><g class="tick major" transform="translate(0,219.53271028037383)" style="opacity: 1;"><line x2="-6" y2="0"/><text x="-9" y="0" dy=".32em" style="text-anchor: end;"/></g><g class="tick major" transform="translate(0,249.81308411214954)" style="opacity: 1;"><line x2="-6" y2="0"/><text x="-9" y="0" dy=".32em" style="text-anchor: end;"/></g><g class="tick major" transform="translate(0,280.0934579439252)" style="opacity: 1;"><line x2="-6" y2="0"/><text x="-9" y="0" dy=".32em" style="text-anchor: end;"/></g><g class="tick major" transform="translate(0,310.3738317757009)" style="opacity: 1;"><line x2="-6" y2="0"/><text x="-9" y="0" dy=".32em" style="text-anchor: end;"/></g><g class="tick major" transform="translate(0,340.6542056074766)" style="opacity: 1;"><line x2="-6" y2="0"/><text x="-9" y="0" dy=".32em" style="text-anchor: end;"/></g><g class="tick major" transform="translate(0,370.93457943925233)" style="opacity: 1;"><line x2="-6" y2="0"/><text x="-9" y="0" dy=".32em" style="text-anchor: end;"/></g><g class="tick major" transform="translate(0,401.21495327102804)" style="opacity: 1;"><line x2="-6" y2="0"/><text x="-9" y="0" dy=".32em" style="text-anchor: end;"/></g><g class="tick major" transform="translate(0,431.49532710280374)" style="opacity: 1;"><line x2="-6" y2="0"/><text x="-9" y="0" dy=".32em" style="text-anchor: end;"/></g><g class="tick major" transform="translate(0,461.77570093457945)" style="opacity: 1;"><line x2="-6" y2="0"/><text x="-9" y="0" dy=".32em" style="text-anchor: end;"/></g><g class="tick major" transform="translate(0,492.05607476635515)" style="opacity: 1;"><line x2="-6" y2="0"/><text x="-9" y="0" dy=".32em" style="text-anchor: end;"/></g><g class="tick major" transform="translate(0,522.3364485981308)" style="opacity: 1;"><line x2="-6" y2="0"/><text x="-9" y="0" dy=".32em" style="text-anchor: end;"/></g><g class="tick major" transform="translate(0,552.6168224299065)" style="opacity: 1;"><line x2="-6" y2="0"/><text x="-9" y="0" dy=".32em" style="text-anchor: end;"/></g><g class="tick major" transform="translate(0,582.8971962616822)" style="opacity: 1;"><line x2="-6" y2="0"/><text x="-9" y="0" dy=".32em" style="text-anchor: end;"/></g><g class="tick major" transform="translate(0,613.1775700934579)" style="opacity: 1;"><line x2="-6" y2="0"/><text x="-9" y="0" dy=".32em" style="text-anchor: end;"/></g><g class="tick major" transform="translate(0,643.4579439252336)" style="opacity: 1;"><line x2="-6" y2="0"/><text x="-9" y="0" dy=".32em" style="text-anchor: end;"/></g><g class="tick major" transform="translate(0,673.7383177570093)" style="opacity: 1;"><line x2="-6" y2="0"/><text x="-9" y="0" dy=".32em" style="text-anchor: end;"/></g><g class="tick major" transform="translate(0,704.018691588785)" style="opacity: 1;"><line x2="-6" y2="0"/><text x="-9" y="0" dy=".32em" style="text-anchor: end;"/></g><g class="tick major" transform="translate(0,734.2990654205607)" style="opacity: 1;"><line x2="-6" y2="0"/><text x="-9" y="0" dy=".32em" style="text-anchor: end;"/></g><g class="tick major" transform="translate(0,764.5794392523364)" style="opacity: 1;"><line x2="-6" y2="0"/><text x="-9" y="0" dy=".32em" style="text-anchor: end;"/></g><g class="tick major" transform="translate(0,794.8598130841121)" style="opacity: 1;"><line x2="-6" y2="0"/><text x="-9" y="0" dy=".32em" style="text-anchor: end;"/></g><g class="tick major" transform="translate(0,825.1401869158879)" style="opacity: 1;"><line x2="-6" y2="0"/><text x="-9" y="0" dy=".32em" style="text-anchor: end;"/></g><g class="tick major" transform="translate(0,855.4205607476636)" style="opacity: 1;"><line x2="-6" y2="0"/><text x="-9" y="0" dy=".32em" style="text-anchor: end;"/></g><g class="tick major" transform="translate(0,885.7009345794393)" style="opacity: 1;"><line x2="-6" y2="0"/><text x="-9" y="0" dy=".32em" style="text-anchor: end;"/></g><g class="tick major" transform="translate(0,915.981308411215)" style="opacity: 1;"><line x2="-6" y2="0"/><text x="-9" y="0" dy=".32em" style="text-anchor: end;"/></g><g class="tick major" transform="translate(0,946.2616822429907)" style="opacity: 1;"><line x2="-6" y2="0"/><text x="-9" y="0" dy=".32em" style="text-anchor: end;"/></g><g class="tick major" transform="translate(0,976.5420560747664)" style="opacity: 1;"><line x2="-6" y2="0"/><text x="-9" y="0" dy=".32em" style="text-anchor: end;"/></g><g class="tick major" transform="translate(0,1006.8224299065421)" style="opacity: 1;"><line x2="-6" y2="0"/><text x="-9" y="0" dy=".32em" style="text-anchor: end;"/></g><g class="tick major" transform="translate(0,1037.1028037383176)" style="opacity: 1;"><line x2="-6" y2="0"/><text x="-9" y="0" dy=".32em" style="text-anchor: end;"/></g><g class="tick major" transform="translate(0,1067.3831775700933)" style="opacity: 1;"><line x2="-6" y2="0"/><text x="-9" y="0" dy=".32em" style="text-anchor: end;"/></g><g class="tick major" transform="translate(0,1097.663551401869)" style="opacity: 1;"><line x2="-6" y2="0"/><text x="-9" y="0" dy=".32em" style="text-anchor: end;"/></g><g class="tick major" transform="translate(0,1127.9439252336447)" style="opacity: 1;"><line x2="-6" y2="0"/><text x="-9" y="0" dy=".32em" style="text-anchor: end;"/></g><g class="tick major" transform="translate(0,1158.2242990654204)" style="opacity: 1;"><line x2="-6" y2="0"/><text x="-9" y="0" dy=".32em" style="text-anchor: end;"/></g><g class="tick major" transform="translate(0,1188.504672897196)" style="opacity: 1;"><line x2="-6" y2="0"/><text x="-9" y="0" dy=".32em" style="text-anchor: end;"/></g><g class="tick major" transform="translate(0,1218.7850467289718)" style="opacity: 1;"><line x2="-6" y2="0"/><text x="-9" y="0" dy=".32em" style="text-anchor: end;"/></g><g class="tick major" transform="translate(0,1249.0654205607475)" style="opacity: 1;"><line x2="-6" y2="0"/><text x="-9" y="0" dy=".32em" style="text-anchor: end;"/></g><g class="tick major" transform="translate(0,1279.3457943925232)" style="opacity: 1;"><line x2="-6" y2="0"/><text x="-9" y="0" dy=".32em" style="text-anchor: end;"/></g><g class="tick major" transform="translate(0,1309.626168224299)" style="opacity: 1;"><line x2="-6" y2="0"/><text x="-9" y="0" dy=".32em" style="text-anchor: end;"/></g><g class="tick major" transform="translate(0,1339.9065420560746)" style="opacity: 1;"><line x2="-6" y2="0"/><text x="-9" y="0" dy=".32em" style="text-anchor: end;"/></g><g class="tick major" transform="translate(0,1370.1869158878503)" style="opacity: 1;"><line x2="-6" y2="0"/><text x="-9" y="0" dy=".32em" style="text-anchor: end;"/></g><g class="tick major" transform="translate(0,1400.467289719626)" style="opacity: 1;"><line x2="-6" y2="0"/><text x="-9" y="0" dy=".32em" style="text-anchor: end;"/></g><g class="tick major" transform="translate(0,1430.7476635514017)" style="opacity: 1;"><line x2="-6" y2="0"/><text x="-9" y="0" dy=".32em" style="text-anchor: end;"/></g><g class="tick major" transform="translate(0,1461.0280373831774)" style="opacity: 1;"><line x2="-6" y2="0"/><text x="-9" y="0" dy=".32em" style="text-anchor: end;"/></g><g class="tick major" transform="translate(0,1491.3084112149531)" style="opacity: 1;"><line x2="-6" y2="0"/><text x="-9" y="0" dy=".32em" style="text-anchor: end;"/></g><g class="tick major" transform="translate(0,1521.5887850467288)" style="opacity: 1;"><line x2="-6" y2="0"/><text x="-9" y="0" dy=".32em" style="text-anchor: end;"/></g><g class="tick major" transform="translate(0,1551.8691588785045)" style="opacity: 1;"><line x2="-6" y2="0"/><text x="-9" y="0" dy=".32em" style="text-anchor: end;"/></g><g class="tick major" transform="translate(0,1582.1495327102803)" style="opacity: 1;"><line x2="-6" y2="0"/><text x="-9" y="0" dy=".32em" style="text-anchor: end;"/></g><g class="tick major" transform="translate(0,1612.429906542056)" style="opacity: 1;"><line x2="-6" y2="0"/><text x="-9" y="0" dy=".32em" style="text-anchor: end;"/></g><path class="domain" d="M-6,0H0V1620H-6" style="fill: none; stroke: black; stroke-width: 1;"/></g><g class="xaxis" transform="translate(0,-10)"><g class="tick major" transform="translate(0,0)" style="opacity: 1;"><line y2="-6" x2="0"/><text y="-9" x="0" dy="0em" style="text-anchor: middle;">0%</text></g><g class="tick major" transform="translate(100,0)" style="opacity: 1;"><line y2="-6" x2="0"/><text y="-9" x="0" dy="0em" style="text-anchor: middle;">25%</text></g><g class="tick major" transform="translate(200,0)" style="opacity: 1;"><line y2="-6" x2="0"/><text y="-9" x="0" dy="0em" style="text-anchor: middle;">50%</text></g><g class="tick major" transform="translate(300,0)" style="opacity: 1;"><line y2="-6" x2="0"/><text y="-9" x="0" dy="0em" style="text-anchor: middle;">75%</text></g><g class="tick major" transform="translate(400,0)" style="opacity: 1;"><line y2="-6" x2="0"/><text y="-9" x="0" dy="0em" style="text-anchor: middle;">100%</text></g><path class="domain" d="M0,-6V0H400V-6" style="fill: none; stroke: black; stroke-width: 1;"/></g><text x="200" y="-35" text-anchor="middle">% Bases Aligned to Region</text><rect x="4" y="-80" width="20" height="20" fill="#FFB441"/><text x="28.000000000000004" y="-70" text-anchor="begin" alignment-baseline="middle">Coding</text><rect x="104" y="-80" width="20" height="20" fill="#666666"/><text x="128" y="-70" text-anchor="begin" alignment-baseline="middle">UTR</text><rect x="204" y="-80" width="20" height="20" fill="#7CABD4"/><text x="228.00000000000003" y="-70" text-anchor="begin" alignment-baseline="middle">Intron</text><rect x="304" y="-80" width="20" height="20" fill="#AD73AC"/><text x="328" y="-70" text-anchor="begin" alignment-baseline="middle">Intergenic</text><text y="7.570093457943925" x="-15" text-anchor="end" alignment-baseline="middle">CB-420-L<title>CB-420-L</title></text><rect x="0" y="-2.4299065420560746" width="108.92918052624287" height="20" fill="#FFB441" stroke="none"><title>27.2%</title></rect><rect x="108.92918052624287" y="-2.4299065420560746" width="75.0016622348624" height="20" fill="#666666" stroke="none"><title>18.8%</title></rect><rect x="183.93084276110528" y="-2.4299065420560746" width="160.79142879363962" height="20" fill="#7CABD4" stroke="none"><title>40.2%</title></rect><rect x="344.7222715547449" y="-2.4299065420560746" width="55.2777284452551" height="20" fill="#AD73AC" stroke="none"><title>13.8%</title></rect><text y="37.850467289719624" x="-15" text-anchor="end" alignment-baseline="middle">CB-420-R<title>CB-420-R</title></text><rect x="0" y="27.850467289719624" width="111.76263094126348" height="20" fill="#FFB441" stroke="none"><title>27.9%</title></rect><rect x="111.76263094126348" y="27.850467289719624" width="75.25534664821559" height="20" fill="#666666" stroke="none"><title>18.8%</title></rect><rect x="187.0179775894791" y="27.850467289719624" width="155.41970261428028" height="20" fill="#7CABD4" stroke="none"><title>38.9%</title></rect><rect x="342.4376802037594" y="27.850467289719624" width="57.56231979624062" height="20" fill="#AD73AC" stroke="none"><title>14.4%</title></rect><text y="68.13084112149532" x="-15" text-anchor="end" alignment-baseline="middle">CB-441-L<title>CB-441-L</title></text><rect x="0" y="58.13084112149532" width="117.89589607991905" height="20" fill="#FFB441" stroke="none"><title>29.5%</title></rect><rect x="117.89589607991905" y="58.13084112149532" width="77.46557261263175" height="20" fill="#666666" stroke="none"><title>19.4%</title></rect><rect x="195.3614686925508" y="58.13084112149532" width="143.99985924085001" height="20" fill="#7CABD4" stroke="none"><title>36.0%</title></rect><rect x="339.3613279334008" y="58.13084112149532" width="60.638672066599185" height="20" fill="#AD73AC" stroke="none"><title>15.2%</title></rect><text y="98.41121495327103" x="-15" text-anchor="end" alignment-baseline="middle">CB-441-R<title>CB-441-R</title></text><rect x="0" y="88.41121495327103" width="114.46600533943602" height="20" fill="#FFB441" stroke="none"><title>28.6%</title></rect><rect x="114.46600533943602" y="88.41121495327103" width="77.49786933414461" height="20" fill="#666666" stroke="none"><title>19.4%</title></rect><rect x="191.96387467358065" y="88.41121495327103" width="149.64884244017222" height="20" fill="#7CABD4" stroke="none"><title>37.4%</title></rect><rect x="341.61271711375286" y="88.41121495327103" width="58.387282886247135" height="20" fill="#AD73AC" stroke="none"><title>14.6%</title></rect><text y="128.69158878504672" x="-15" text-anchor="end" alignment-baseline="middle">CB-442-L<title>CB-442-L</title></text><rect x="0" y="118.69158878504672" width="120.52983528775147" height="20" fill="#FFB441" stroke="none"><title>30.1%</title></rect><rect x="120.52983528775147" y="118.69158878504672" width="80.40748036596722" height="20" fill="#666666" stroke="none"><title>20.1%</title></rect><rect x="200.93731565371868" y="118.69158878504672" width="138.38432266053871" height="20" fill="#7CABD4" stroke="none"><title>34.6%</title></rect><rect x="339.32163831425737" y="118.69158878504672" width="60.67836168574259" height="20" fill="#AD73AC" stroke="none"><title>15.2%</title></rect><text y="158.97196261682242" x="-15" text-anchor="end" alignment-baseline="middle">CB-442-R<title>CB-442-R</title></text><rect x="0" y="148.97196261682242" width="114.32275850466358" height="20" fill="#FFB441" stroke="none"><title>28.6%</title></rect><rect x="114.32275850466358" y="148.97196261682242" width="74.89941622451977" height="20" fill="#666666" stroke="none"><title>18.7%</title></rect><rect x="189.22217472918334" y="148.97196261682242" width="151.23461949561175" height="20" fill="#7CABD4" stroke="none"><title>37.8%</title></rect><rect x="340.4567942247951" y="148.97196261682242" width="59.54320577520489" height="20" fill="#AD73AC" stroke="none"><title>14.9%</title></rect><text y="189.25233644859813" x="-15" text-anchor="end" alignment-baseline="middle">CB-447-L<title>CB-447-L</title></text><rect x="0" y="179.25233644859813" width="118.05593926765393" height="20" fill="#FFB441" stroke="none"><title>29.5%</title></rect><rect x="118.05593926765393" y="179.25233644859813" width="80.20926571562934" height="20" fill="#666666" stroke="none"><title>20.1%</title></rect><rect x="198.26520498328327" y="179.25233644859813" width="143.78745748423614" height="20" fill="#7CABD4" stroke="none"><title>35.9%</title></rect><rect x="342.0526624675194" y="179.25233644859813" width="57.94733753248059" height="20" fill="#AD73AC" stroke="none"><title>14.5%</title></rect><text y="219.53271028037383" x="-15" text-anchor="end" alignment-baseline="middle">CB-447-R<title>CB-447-R</title></text><rect x="0" y="209.53271028037383" width="115.11358252105445" height="20" fill="#FFB441" stroke="none"><title>28.8%</title></rect><rect x="115.11358252105445" y="209.53271028037383" width="77.12241512256043" height="20" fill="#666666" stroke="none"><title>19.3%</title></rect><rect x="192.2359976436149" y="209.53271028037383" width="152.28235971932475" height="20" fill="#7CABD4" stroke="none"><title>38.1%</title></rect><rect x="344.51835736293964" y="209.53271028037383" width="55.48164263706035" height="20" fill="#AD73AC" stroke="none"><title>13.9%</title></rect><text y="249.81308411214954" x="-15" text-anchor="end" alignment-baseline="middle">CB-455-L<title>CB-455-L</title></text><rect x="0" y="239.81308411214954" width="119.75862753947224" height="20" fill="#FFB441" stroke="none"><title>29.9%</title></rect><rect x="119.75862753947224" y="239.81308411214954" width="77.98225051084901" height="20" fill="#666666" stroke="none"><title>19.5%</title></rect><rect x="197.74087805032124" y="239.81308411214954" width="137.09059642557258" height="20" fill="#7CABD4" stroke="none"><title>34.3%</title></rect><rect x="334.83147447589386" y="239.81308411214954" width="65.16852552410613" height="20" fill="#AD73AC" stroke="none"><title>16.3%</title></rect><text y="280.0934579439252" x="-15" text-anchor="end" alignment-baseline="middle">CB-455-R<title>CB-455-R</title></text><rect x="0" y="270.0934579439252" width="115.13230716204504" height="20" fill="#FFB441" stroke="none"><title>28.8%</title></rect><rect x="115.13230716204504" y="270.0934579439252" width="78.64945436957106" height="20" fill="#666666" stroke="none"><title>19.7%</title></rect><rect x="193.7817615316161" y="270.0934579439252" width="143.68956570959332" height="20" fill="#7CABD4" stroke="none"><title>35.9%</title></rect><rect x="337.47132724120945" y="270.0934579439252" width="62.528672758790584" height="20" fill="#AD73AC" stroke="none"><title>15.6%</title></rect><text y="310.3738317757009" x="-15" text-anchor="end" alignment-baseline="middle">CB-465-L<title>CB-465-L</title></text><rect x="0" y="300.3738317757009" width="117.02528360524158" height="20" fill="#FFB441" stroke="none"><title>29.3%</title></rect><rect x="117.02528360524158" y="300.3738317757009" width="79.70550759123785" height="20" fill="#666666" stroke="none"><title>19.9%</title></rect><rect x="196.73079119647943" y="300.3738317757009" width="148.1325073536516" height="20" fill="#7CABD4" stroke="none"><title>37.0%</title></rect><rect x="344.86329855013105" y="300.3738317757009" width="55.13670144986897" height="20" fill="#AD73AC" stroke="none"><title>13.8%</title></rect><text y="340.6542056074766" x="-15" text-anchor="end" alignment-baseline="middle">CB-465-R<title>CB-465-R</title></text><rect x="0" y="330.6542056074766" width="121.04566202525773" height="20" fill="#FFB441" stroke="none"><title>30.3%</title></rect><rect x="121.04566202525773" y="330.6542056074766" width="80.25695858866271" height="20" fill="#666666" stroke="none"><title>20.1%</title></rect><rect x="201.30262061392042" y="330.6542056074766" width="142.03992316637937" height="20" fill="#7CABD4" stroke="none"><title>35.5%</title></rect><rect x="343.3425437802998" y="330.6542056074766" width="56.65745621970019" height="20" fill="#AD73AC" stroke="none"><title>14.2%</title></rect><text y="370.93457943925233" x="-15" text-anchor="end" alignment-baseline="middle">CB-466-L<title>CB-466-L</title></text><rect x="0" y="360.93457943925233" width="119.5626082841831" height="20" fill="#FFB441" stroke="none"><title>29.9%</title></rect><rect x="119.5626082841831" y="360.93457943925233" width="79.70408677511696" height="20" fill="#666666" stroke="none"><title>19.9%</title></rect><rect x="199.26669505930005" y="360.93457943925233" width="142.0732194251486" height="20" fill="#7CABD4" stroke="none"><title>35.5%</title></rect><rect x="341.3399144844487" y="360.93457943925233" width="58.660085515551344" height="20" fill="#AD73AC" stroke="none"><title>14.7%</title></rect><text y="401.21495327102804" x="-15" text-anchor="end" alignment-baseline="middle">CB-466-R<title>CB-466-R</title></text><rect x="0" y="391.21495327102804" width="112.81894280923864" height="20" fill="#FFB441" stroke="none"><title>28.2%</title></rect><rect x="112.81894280923864" y="391.21495327102804" width="76.50204093931671" height="20" fill="#666666" stroke="none"><title>19.1%</title></rect><rect x="189.32098374855536" y="391.21495327102804" width="156.08232106296035" height="20" fill="#7CABD4" stroke="none"><title>39.0%</title></rect><rect x="345.4033048115157" y="391.21495327102804" width="54.596695188484304" height="20" fill="#AD73AC" stroke="none"><title>13.6%</title></rect><text y="431.49532710280374" x="-15" text-anchor="end" alignment-baseline="middle">CB-468-L<title>CB-468-L</title></text><rect x="0" y="421.49532710280374" width="112.96507491262551" height="20" fill="#FFB441" stroke="none"><title>28.2%</title></rect><rect x="112.96507491262551" y="421.49532710280374" width="76.58087419078117" height="20" fill="#666666" stroke="none"><title>19.1%</title></rect><rect x="189.54594910340668" y="421.49532710280374" width="158.52201203043956" height="20" fill="#7CABD4" stroke="none"><title>39.6%</title></rect><rect x="348.0679611338462" y="421.49532710280374" width="51.93203886615375" height="20" fill="#AD73AC" stroke="none"><title>13.0%</title></rect><text y="461.77570093457945" x="-15" text-anchor="end" alignment-baseline="middle">CB-468-R<title>CB-468-R</title></text><rect x="0" y="451.77570093457945" width="126.15002602832797" height="20" fill="#FFB441" stroke="none"><title>31.5%</title></rect><rect x="126.15002602832797" y="451.77570093457945" width="83.59364128609977" height="20" fill="#666666" stroke="none"><title>20.9%</title></rect><rect x="209.74366731442774" y="451.77570093457945" width="132.17130933135337" height="20" fill="#7CABD4" stroke="none"><title>33.0%</title></rect><rect x="341.9149766457811" y="451.77570093457945" width="58.08502335421891" height="20" fill="#AD73AC" stroke="none"><title>14.5%</title></rect><text y="492.05607476635515" x="-15" text-anchor="end" alignment-baseline="middle">CB-469-L<title>CB-469-L</title></text><rect x="0" y="482.05607476635515" width="114.96802513624954" height="20" fill="#FFB441" stroke="none"><title>28.7%</title></rect><rect x="114.96802513624954" y="482.05607476635515" width="78.70528601037707" height="20" fill="#666666" stroke="none"><title>19.7%</title></rect><rect x="193.6733111466266" y="482.05607476635515" width="147.7122853583504" height="20" fill="#7CABD4" stroke="none"><title>36.9%</title></rect><rect x="341.385596504977" y="482.05607476635515" width="58.61440349502299" height="20" fill="#AD73AC" stroke="none"><title>14.7%</title></rect><text y="522.3364485981308" x="-15" text-anchor="end" alignment-baseline="middle">CB-469-R<title>CB-469-R</title></text><rect x="0" y="512.3364485981308" width="117.3660456475238" height="20" fill="#FFB441" stroke="none"><title>29.3%</title></rect><rect x="117.3660456475238" y="512.3364485981308" width="77.26075816585707" height="20" fill="#666666" stroke="none"><title>19.3%</title></rect><rect x="194.62680381338086" y="512.3364485981308" width="147.1633302706842" height="20" fill="#7CABD4" stroke="none"><title>36.8%</title></rect><rect x="341.790134084065" y="512.3364485981308" width="58.209865915934955" height="20" fill="#AD73AC" stroke="none"><title>14.6%</title></rect><text y="552.6168224299065" x="-15" text-anchor="end" alignment-baseline="middle">HP-420-L<title>HP-420-L</title></text><rect x="0" y="542.6168224299065" width="123.46213468239485" height="20" fill="#FFB441" stroke="none"><title>30.9%</title></rect><rect x="123.46213468239485" y="542.6168224299065" width="86.01561848470377" height="20" fill="#666666" stroke="none"><title>21.5%</title></rect><rect x="209.4777531670986" y="542.6168224299065" width="130.75399562479288" height="20" fill="#7CABD4" stroke="none"><title>32.7%</title></rect><rect x="340.2317487918915" y="542.6168224299065" width="59.768251208108516" height="20" fill="#AD73AC" stroke="none"><title>14.9%</title></rect><text y="582.8971962616822" x="-15" text-anchor="end" alignment-baseline="middle">HP-420-R<title>HP-420-R</title></text><rect x="0" y="572.8971962616822" width="117.41051738572617" height="20" fill="#FFB441" stroke="none"><title>29.4%</title></rect><rect x="117.41051738572617" y="572.8971962616822" width="82.54660333730777" height="20" fill="#666666" stroke="none"><title>20.6%</title></rect><rect x="199.95712072303394" y="572.8971962616822" width="146.25257613158655" height="20" fill="#7CABD4" stroke="none"><title>36.6%</title></rect><rect x="346.20969685462046" y="572.8971962616822" width="53.790303145379525" height="20" fill="#AD73AC" stroke="none"><title>13.4%</title></rect><text y="613.1775700934579" x="-15" text-anchor="end" alignment-baseline="middle">HP-441-L<title>HP-441-L</title></text><rect x="0" y="603.1775700934579" width="121.34652088237561" height="20" fill="#FFB441" stroke="none"><title>30.3%</title></rect><rect x="121.34652088237561" y="603.1775700934579" width="84.29764505019241" height="20" fill="#666666" stroke="none"><title>21.1%</title></rect><rect x="205.64416593256803" y="603.1775700934579" width="137.10395935674168" height="20" fill="#7CABD4" stroke="none"><title>34.3%</title></rect><rect x="342.7481252893097" y="603.1775700934579" width="57.251874710690274" height="20" fill="#AD73AC" stroke="none"><title>14.3%</title></rect><text y="643.4579439252336" x="-15" text-anchor="end" alignment-baseline="middle">HP-441-R<title>HP-441-R</title></text><rect x="0" y="633.4579439252336" width="121.76984897972652" height="20" fill="#FFB441" stroke="none"><title>30.4%</title></rect><rect x="121.76984897972652" y="633.4579439252336" width="85.24333007534338" height="20" fill="#666666" stroke="none"><title>21.3%</title></rect><rect x="207.0131790550699" y="633.4579439252336" width="134.0059938509531" height="20" fill="#7CABD4" stroke="none"><title>33.5%</title></rect><rect x="341.019172906023" y="633.4579439252336" width="58.980827093976984" height="20" fill="#AD73AC" stroke="none"><title>14.7%</title></rect><text y="673.7383177570093" x="-15" text-anchor="end" alignment-baseline="middle">HP-442-L<title>HP-442-L</title></text><rect x="0" y="663.7383177570093" width="124.45782552540166" height="20" fill="#FFB441" stroke="none"><title>31.1%</title></rect><rect x="124.45782552540166" y="663.7383177570093" width="88.6778766212219" height="20" fill="#666666" stroke="none"><title>22.2%</title></rect><rect x="213.13570214662354" y="663.7383177570093" width="124.79962593826312" height="20" fill="#7CABD4" stroke="none"><title>31.2%</title></rect><rect x="337.9353280848867" y="663.7383177570093" width="62.06467191511332" height="20" fill="#AD73AC" stroke="none"><title>15.5%</title></rect><text y="704.018691588785" x="-15" text-anchor="end" alignment-baseline="middle">HP-442-R<title>HP-442-R</title></text><rect x="0" y="694.018691588785" width="122.98316421606673" height="20" fill="#FFB441" stroke="none"><title>30.7%</title></rect><rect x="122.98316421606673" y="694.018691588785" width="86.65106790863116" height="20" fill="#666666" stroke="none"><title>21.7%</title></rect><rect x="209.63423212469786" y="694.018691588785" width="132.81580570388687" height="20" fill="#7CABD4" stroke="none"><title>33.2%</title></rect><rect x="342.4500378285847" y="694.018691588785" width="57.549962171415245" height="20" fill="#AD73AC" stroke="none"><title>14.4%</title></rect><text y="734.2990654205607" x="-15" text-anchor="end" alignment-baseline="middle">HP-447-L<title>HP-447-L</title></text><rect x="0" y="724.2990654205607" width="121.41618938548436" height="20" fill="#FFB441" stroke="none"><title>30.4%</title></rect><rect x="121.41618938548436" y="724.2990654205607" width="86.6731917436048" height="20" fill="#666666" stroke="none"><title>21.7%</title></rect><rect x="208.08938112908913" y="724.2990654205607" width="134.0050063177179" height="20" fill="#7CABD4" stroke="none"><title>33.5%</title></rect><rect x="342.09438744680705" y="724.2990654205607" width="57.905612553192945" height="20" fill="#AD73AC" stroke="none"><title>14.5%</title></rect><text y="764.5794392523364" x="-15" text-anchor="end" alignment-baseline="middle">HP-447-R<title>HP-447-R</title></text><rect x="0" y="754.5794392523364" width="119.86415816478726" height="20" fill="#FFB441" stroke="none"><title>30.0%</title></rect><rect x="119.86415816478726" y="754.5794392523364" width="85.89278679217264" height="20" fill="#666666" stroke="none"><title>21.5%</title></rect><rect x="205.7569449569599" y="754.5794392523364" width="138.36343172197022" height="20" fill="#7CABD4" stroke="none"><title>34.6%</title></rect><rect x="344.12037667893014" y="754.5794392523364" width="55.87962332106989" height="20" fill="#AD73AC" stroke="none"><title>14.0%</title></rect><text y="794.8598130841121" x="-15" text-anchor="end" alignment-baseline="middle">HP-455-L<title>HP-455-L</title></text><rect x="0" y="784.8598130841121" width="130.60567064642024" height="20" fill="#FFB441" stroke="none"><title>32.7%</title></rect><rect x="130.60567064642024" y="784.8598130841121" width="91.08999234088567" height="20" fill="#666666" stroke="none"><title>22.8%</title></rect><rect x="221.69566298730592" y="784.8598130841121" width="116.49613312713325" height="20" fill="#7CABD4" stroke="none"><title>29.1%</title></rect><rect x="338.19179611443917" y="784.8598130841121" width="61.80820388556084" height="20" fill="#AD73AC" stroke="none"><title>15.5%</title></rect><text y="825.1401869158879" x="-15" text-anchor="end" alignment-baseline="middle">HP-455-R<title>HP-455-R</title></text><rect x="0" y="815.1401869158879" width="131.64106288809833" height="20" fill="#FFB441" stroke="none"><title>32.9%</title></rect><rect x="131.64106288809833" y="815.1401869158879" width="94.99738874392227" height="20" fill="#666666" stroke="none"><title>23.7%</title></rect><rect x="226.6384516320206" y="815.1401869158879" width="113.8390855870998" height="20" fill="#7CABD4" stroke="none"><title>28.5%</title></rect><rect x="340.4775372191204" y="815.1401869158879" width="59.52246278087957" height="20" fill="#AD73AC" stroke="none"><title>14.9%</title></rect><text y="855.4205607476636" x="-15" text-anchor="end" alignment-baseline="middle">HP-465-L<title>HP-465-L</title></text><rect x="0" y="845.4205607476636" width="129.4857625715527" height="20" fill="#FFB441" stroke="none"><title>32.4%</title></rect><rect x="129.4857625715527" y="845.4205607476636" width="90.87169283982072" height="20" fill="#666666" stroke="none"><title>22.7%</title></rect><rect x="220.35745541137342" y="845.4205607476636" width="122.79019564679898" height="20" fill="#7CABD4" stroke="none"><title>30.7%</title></rect><rect x="343.1476510581724" y="845.4205607476636" width="56.85234894182758" height="20" fill="#AD73AC" stroke="none"><title>14.2%</title></rect><text y="885.7009345794393" x="-15" text-anchor="end" alignment-baseline="middle">HP-465-R<title>HP-465-R</title></text><rect x="0" y="875.7009345794393" width="133.53334675954122" height="20" fill="#FFB441" stroke="none"><title>33.4%</title></rect><rect x="133.53334675954122" y="875.7009345794393" width="94.2269926128984" height="20" fill="#666666" stroke="none"><title>23.6%</title></rect><rect x="227.76033937243963" y="875.7009345794393" width="118.6092072410879" height="20" fill="#7CABD4" stroke="none"><title>29.7%</title></rect><rect x="346.3695466135275" y="875.7009345794393" width="53.630453386472496" height="20" fill="#AD73AC" stroke="none"><title>13.4%</title></rect><text y="915.981308411215" x="-15" text-anchor="end" alignment-baseline="middle">HP-466-L<title>HP-466-L</title></text><rect x="0" y="905.981308411215" width="130.67105553062135" height="20" fill="#FFB441" stroke="none"><title>32.7%</title></rect><rect x="130.67105553062135" y="905.981308411215" width="94.29987381145436" height="20" fill="#666666" stroke="none"><title>23.6%</title></rect><rect x="224.97092934207572" y="905.981308411215" width="118.69560075062482" height="20" fill="#7CABD4" stroke="none"><title>29.7%</title></rect><rect x="343.66653009270055" y="905.981308411215" width="56.333469907299474" height="20" fill="#AD73AC" stroke="none"><title>14.1%</title></rect><text y="946.2616822429907" x="-15" text-anchor="end" alignment-baseline="middle">HP-466-R<title>HP-466-R</title></text><rect x="0" y="936.2616822429907" width="139.83792108366436" height="20" fill="#FFB441" stroke="none"><title>35.0%</title></rect><rect x="139.83792108366436" y="936.2616822429907" width="97.51904520465187" height="20" fill="#666666" stroke="none"><title>24.4%</title></rect><rect x="237.35696628831624" y="936.2616822429907" width="107.87581991195032" height="20" fill="#7CABD4" stroke="none"><title>27.0%</title></rect><rect x="345.23278620026656" y="936.2616822429907" width="54.76721379973345" height="20" fill="#AD73AC" stroke="none"><title>13.7%</title></rect><text y="976.5420560747664" x="-15" text-anchor="end" alignment-baseline="middle">HP-468-L<title>HP-468-L</title></text><rect x="0" y="966.5420560747664" width="125.79734060516795" height="20" fill="#FFB441" stroke="none"><title>31.4%</title></rect><rect x="125.79734060516795" y="966.5420560747664" width="90.31742510057977" height="20" fill="#666666" stroke="none"><title>22.6%</title></rect><rect x="216.11476570574771" y="966.5420560747664" width="130.3485589039107" height="20" fill="#7CABD4" stroke="none"><title>32.6%</title></rect><rect x="346.4633246096584" y="966.5420560747664" width="53.53667539034158" height="20" fill="#AD73AC" stroke="none"><title>13.4%</title></rect><text y="1006.8224299065421" x="-15" text-anchor="end" alignment-baseline="middle">HP-468-R<title>HP-468-R</title></text><rect x="0" y="996.8224299065421" width="133.99859459573273" height="20" fill="#FFB441" stroke="none"><title>33.5%</title></rect><rect x="133.99859459573273" y="996.8224299065421" width="94.69495628398232" height="20" fill="#666666" stroke="none"><title>23.7%</title></rect><rect x="228.69355087971508" y="996.8224299065421" width="112.94780591884353" height="20" fill="#7CABD4" stroke="none"><title>28.2%</title></rect><rect x="341.6413567985586" y="996.8224299065421" width="58.35864320144144" height="20" fill="#AD73AC" stroke="none"><title>14.6%</title></rect><text y="1037.1028037383176" x="-15" text-anchor="end" alignment-baseline="middle">HP-469-L<title>HP-469-L</title></text><rect x="0" y="1027.1028037383176" width="124.96478825358481" height="20" fill="#FFB441" stroke="none"><title>31.2%</title></rect><rect x="124.96478825358481" y="1027.1028037383176" width="88.94548315364867" height="20" fill="#666666" stroke="none"><title>22.2%</title></rect><rect x="213.9102714072335" y="1027.1028037383176" width="128.89837877491107" height="20" fill="#7CABD4" stroke="none"><title>32.2%</title></rect><rect x="342.8086501821445" y="1027.1028037383176" width="57.19134981785546" height="20" fill="#AD73AC" stroke="none"><title>14.3%</title></rect><text y="1067.3831775700933" x="-15" text-anchor="end" alignment-baseline="middle">HP-469-R<title>HP-469-R</title></text><rect x="0" y="1057.3831775700933" width="124.31067526173474" height="20" fill="#FFB441" stroke="none"><title>31.1%</title></rect><rect x="124.31067526173474" y="1057.3831775700933" width="89.91255478453623" height="20" fill="#666666" stroke="none"><title>22.5%</title></rect><rect x="214.22323004627097" y="1057.3831775700933" width="129.95275000565437" height="20" fill="#7CABD4" stroke="none"><title>32.5%</title></rect><rect x="344.1759800519253" y="1057.3831775700933" width="55.82401994807468" height="20" fill="#AD73AC" stroke="none"><title>14.0%</title></rect><text y="1097.663551401869" x="-15" text-anchor="end" alignment-baseline="middle">PFC-420-L<title>PFC-420-L</title></text><rect x="0" y="1087.663551401869" width="124.24580119990947" height="20" fill="#FFB441" stroke="none"><title>31.1%</title></rect><rect x="124.24580119990947" y="1087.663551401869" width="87.00963103859971" height="20" fill="#666666" stroke="none"><title>21.8%</title></rect><rect x="211.25543223850917" y="1087.663551401869" width="131.32895357032052" height="20" fill="#7CABD4" stroke="none"><title>32.8%</title></rect><rect x="342.58438580882967" y="1087.663551401869" width="57.41561419117029" height="20" fill="#AD73AC" stroke="none"><title>14.4%</title></rect><text y="1127.9439252336447" x="-15" text-anchor="end" alignment-baseline="middle">PFC-420-R<title>PFC-420-R</title></text><rect x="0" y="1117.9439252336447" width="113.78562076278742" height="20" fill="#FFB441" stroke="none"><title>28.4%</title></rect><rect x="113.78562076278742" y="1117.9439252336447" width="82.6065365829228" height="20" fill="#666666" stroke="none"><title>20.7%</title></rect><rect x="196.39215734571022" y="1117.9439252336447" width="148.2852127497388" height="20" fill="#7CABD4" stroke="none"><title>37.1%</title></rect><rect x="344.677370095449" y="1117.9439252336447" width="55.322629904550965" height="20" fill="#AD73AC" stroke="none"><title>13.8%</title></rect><text y="1158.2242990654204" x="-15" text-anchor="end" alignment-baseline="middle">PFC-441-L<title>PFC-441-L</title></text><rect x="0" y="1148.2242990654204" width="113.84108852827428" height="20" fill="#FFB441" stroke="none"><title>28.5%</title></rect><rect x="113.84108852827428" y="1148.2242990654204" width="82.71456830484153" height="20" fill="#666666" stroke="none"><title>20.7%</title></rect><rect x="196.5556568331158" y="1148.2242990654204" width="147.7561445685826" height="20" fill="#7CABD4" stroke="none"><title>36.9%</title></rect><rect x="344.3118014016984" y="1148.2242990654204" width="55.68819859830158" height="20" fill="#AD73AC" stroke="none"><title>13.9%</title></rect><text y="1188.504672897196" x="-15" text-anchor="end" alignment-baseline="middle">PFC-441-R<title>PFC-441-R</title></text><rect x="0" y="1178.504672897196" width="112.34329265543586" height="20" fill="#FFB441" stroke="none"><title>28.1%</title></rect><rect x="112.34329265543586" y="1178.504672897196" width="81.57387213003776" height="20" fill="#666666" stroke="none"><title>20.4%</title></rect><rect x="193.9171647854736" y="1178.504672897196" width="148.05150600569027" height="20" fill="#7CABD4" stroke="none"><title>37.0%</title></rect><rect x="341.9686707911639" y="1178.504672897196" width="58.03132920883613" height="20" fill="#AD73AC" stroke="none"><title>14.5%</title></rect><text y="1218.7850467289718" x="-15" text-anchor="end" alignment-baseline="middle">PFC-442-L<title>PFC-442-L</title></text><rect x="0" y="1208.7850467289718" width="118.23974009663442" height="20" fill="#FFB441" stroke="none"><title>29.6%</title></rect><rect x="118.23974009663442" y="1208.7850467289718" width="85.36444955800813" height="20" fill="#666666" stroke="none"><title>21.3%</title></rect><rect x="203.60418965464254" y="1208.7850467289718" width="137.34758300562908" height="20" fill="#7CABD4" stroke="none"><title>34.3%</title></rect><rect x="340.9517726602716" y="1208.7850467289718" width="59.04822733972834" height="20" fill="#AD73AC" stroke="none"><title>14.8%</title></rect><text y="1249.0654205607475" x="-15" text-anchor="end" alignment-baseline="middle">PFC-442-R<title>PFC-442-R</title></text><rect x="0" y="1239.0654205607475" width="129.81868919422016" height="20" fill="#FFB441" stroke="none"><title>32.5%</title></rect><rect x="129.81868919422016" y="1239.0654205607475" width="90.47287061692897" height="20" fill="#666666" stroke="none"><title>22.6%</title></rect><rect x="220.29155981114909" y="1239.0654205607475" width="120.6614717047726" height="20" fill="#7CABD4" stroke="none"><title>30.2%</title></rect><rect x="340.95303151592174" y="1239.0654205607475" width="59.04696848407828" height="20" fill="#AD73AC" stroke="none"><title>14.8%</title></rect><text y="1279.3457943925232" x="-15" text-anchor="end" alignment-baseline="middle">PFC-447-L<title>PFC-447-L</title></text><rect x="0" y="1269.3457943925232" width="124.72072029587392" height="20" fill="#FFB441" stroke="none"><title>31.2%</title></rect><rect x="124.72072029587392" y="1269.3457943925232" width="88.10238851385826" height="20" fill="#666666" stroke="none"><title>22.0%</title></rect><rect x="212.8231088097322" y="1269.3457943925232" width="130.83603164688094" height="20" fill="#7CABD4" stroke="none"><title>32.7%</title></rect><rect x="343.6591404566131" y="1269.3457943925232" width="56.3408595433869" height="20" fill="#AD73AC" stroke="none"><title>14.1%</title></rect><text y="1309.626168224299" x="-15" text-anchor="end" alignment-baseline="middle">PFC-447-R<title>PFC-447-R</title></text><rect x="0" y="1299.626168224299" width="112.34777653680781" height="20" fill="#FFB441" stroke="none"><title>28.1%</title></rect><rect x="112.34777653680781" y="1299.626168224299" width="80.10826842897741" height="20" fill="#666666" stroke="none"><title>20.0%</title></rect><rect x="192.45604496578522" y="1299.626168224299" width="151.0394069415137" height="20" fill="#7CABD4" stroke="none"><title>37.8%</title></rect><rect x="343.49545190729896" y="1299.626168224299" width="56.50454809270107" height="20" fill="#AD73AC" stroke="none"><title>14.1%</title></rect><text y="1339.9065420560746" x="-15" text-anchor="end" alignment-baseline="middle">PFC-455-L<title>PFC-455-L</title></text><rect x="0" y="1329.9065420560746" width="122.71947501523653" height="20" fill="#FFB441" stroke="none"><title>30.7%</title></rect><rect x="122.71947501523653" y="1329.9065420560746" width="89.22899614534444" height="20" fill="#666666" stroke="none"><title>22.3%</title></rect><rect x="211.94847116058097" y="1329.9065420560746" width="130.80667463765863" height="20" fill="#7CABD4" stroke="none"><title>32.7%</title></rect><rect x="342.7551457982396" y="1329.9065420560746" width="57.24485420176041" height="20" fill="#AD73AC" stroke="none"><title>14.3%</title></rect><text y="1370.1869158878503" x="-15" text-anchor="end" alignment-baseline="middle">PFC-455-R<title>PFC-455-R</title></text><rect x="0" y="1360.1869158878503" width="118.5937844128941" height="20" fill="#FFB441" stroke="none"><title>29.6%</title></rect><rect x="118.5937844128941" y="1360.1869158878503" width="87.90427153425782" height="20" fill="#666666" stroke="none"><title>22.0%</title></rect><rect x="206.49805594715193" y="1360.1869158878503" width="136.61587439621712" height="20" fill="#7CABD4" stroke="none"><title>34.2%</title></rect><rect x="343.1139303433691" y="1360.1869158878503" width="56.88606965663096" height="20" fill="#AD73AC" stroke="none"><title>14.2%</title></rect><text y="1400.467289719626" x="-15" text-anchor="end" alignment-baseline="middle">PFC-465-L<title>PFC-465-L</title></text><rect x="0" y="1390.467289719626" width="121.3414055123" height="20" fill="#FFB441" stroke="none"><title>30.3%</title></rect><rect x="121.3414055123" y="1390.467289719626" width="88.32059558768456" height="20" fill="#666666" stroke="none"><title>22.1%</title></rect><rect x="209.66200109998456" y="1390.467289719626" width="135.53848497327172" height="20" fill="#7CABD4" stroke="none"><title>33.9%</title></rect><rect x="345.2004860732563" y="1390.467289719626" width="54.79951392674371" height="20" fill="#AD73AC" stroke="none"><title>13.7%</title></rect><text y="1430.7476635514017" x="-15" text-anchor="end" alignment-baseline="middle">PFC-465-R<title>PFC-465-R</title></text><rect x="0" y="1420.7476635514017" width="125.33245516408222" height="20" fill="#FFB441" stroke="none"><title>31.3%</title></rect><rect x="125.33245516408222" y="1420.7476635514017" width="87.66770245957576" height="20" fill="#666666" stroke="none"><title>21.9%</title></rect><rect x="213.00015762365797" y="1420.7476635514017" width="126.10709280985061" height="20" fill="#7CABD4" stroke="none"><title>31.5%</title></rect><rect x="339.1072504335086" y="1420.7476635514017" width="60.89274956649139" height="20" fill="#AD73AC" stroke="none"><title>15.2%</title></rect><text y="1461.0280373831774" x="-15" text-anchor="end" alignment-baseline="middle">PFC-466-L<title>PFC-466-L</title></text><rect x="0" y="1451.0280373831774" width="118.56148576492993" height="20" fill="#FFB441" stroke="none"><title>29.6%</title></rect><rect x="118.56148576492993" y="1451.0280373831774" width="87.37452740890707" height="20" fill="#666666" stroke="none"><title>21.8%</title></rect><rect x="205.93601317383704" y="1451.0280373831774" width="135.77172890888582" height="20" fill="#7CABD4" stroke="none"><title>33.9%</title></rect><rect x="341.70774208272286" y="1451.0280373831774" width="58.292257917277176" height="20" fill="#AD73AC" stroke="none"><title>14.6%</title></rect><text y="1491.3084112149531" x="-15" text-anchor="end" alignment-baseline="middle">PFC-466-R<title>PFC-466-R</title></text><rect x="0" y="1481.3084112149531" width="119.2747961227181" height="20" fill="#FFB441" stroke="none"><title>29.8%</title></rect><rect x="119.2747961227181" y="1481.3084112149531" width="87.70652713006035" height="20" fill="#666666" stroke="none"><title>21.9%</title></rect><rect x="206.98132325277845" y="1481.3084112149531" width="137.57668356204306" height="20" fill="#7CABD4" stroke="none"><title>34.4%</title></rect><rect x="344.55800681482145" y="1481.3084112149531" width="55.44199318517853" height="20" fill="#AD73AC" stroke="none"><title>13.9%</title></rect><text y="1521.5887850467288" x="-15" text-anchor="end" alignment-baseline="middle">PFC-468-L<title>PFC-468-L</title></text><rect x="0" y="1511.5887850467288" width="123.56122787683897" height="20" fill="#FFB441" stroke="none"><title>30.9%</title></rect><rect x="123.56122787683897" y="1511.5887850467288" width="88.56484927014142" height="20" fill="#666666" stroke="none"><title>22.1%</title></rect><rect x="212.1260771469804" y="1511.5887850467288" width="127.02521034481235" height="20" fill="#7CABD4" stroke="none"><title>31.8%</title></rect><rect x="339.15128749179274" y="1511.5887850467288" width="60.84871250820725" height="20" fill="#AD73AC" stroke="none"><title>15.2%</title></rect><text y="1551.8691588785045" x="-15" text-anchor="end" alignment-baseline="middle">PFC-468-R<title>PFC-468-R</title></text><rect x="0" y="1541.8691588785045" width="126.36542625218522" height="20" fill="#FFB441" stroke="none"><title>31.6%</title></rect><rect x="126.36542625218522" y="1541.8691588785045" width="88.10217268480987" height="20" fill="#666666" stroke="none"><title>22.0%</title></rect><rect x="214.46759893699507" y="1541.8691588785045" width="125.93879712355347" height="20" fill="#7CABD4" stroke="none"><title>31.5%</title></rect><rect x="340.40639606054856" y="1541.8691588785045" width="59.59360393945145" height="20" fill="#AD73AC" stroke="none"><title>14.9%</title></rect><text y="1582.1495327102803" x="-15" text-anchor="end" alignment-baseline="middle">PFC-469-L<title>PFC-469-L</title></text><rect x="0" y="1572.1495327102803" width="121.67068361090416" height="20" fill="#FFB441" stroke="none"><title>30.4%</title></rect><rect x="121.67068361090416" y="1572.1495327102803" width="87.31869674301879" height="20" fill="#666666" stroke="none"><title>21.8%</title></rect><rect x="208.98938035392297" y="1572.1495327102803" width="130.03815272353037" height="20" fill="#7CABD4" stroke="none"><title>32.5%</title></rect><rect x="339.02753307745337" y="1572.1495327102803" width="60.972466922546666" height="20" fill="#AD73AC" stroke="none"><title>15.2%</title></rect><text y="1612.429906542056" x="-15" text-anchor="end" alignment-baseline="middle">PFC-469-R<title>PFC-469-R</title></text><rect x="0" y="1602.429906542056" width="123.8282689312575" height="20" fill="#FFB441" stroke="none"><title>31.0%</title></rect><rect x="123.8282689312575" y="1602.429906542056" width="87.63137490597143" height="20" fill="#666666" stroke="none"><title>21.9%</title></rect><rect x="211.45964383722892" y="1602.429906542056" width="131.46398407352575" height="20" fill="#7CABD4" stroke="none"><title>32.9%</title></rect><rect x="342.9236279107547" y="1602.429906542056" width="57.07637208924532" height="20" fill="#AD73AC" stroke="none"><title>14.3%</title></rect></g></svg>